<?xml version="1.0" encoding="utf-8"?>
<svg version="1.1" id="Layer_1" xmlns="http://www.w3.org/2000/svg" xmlns:xlink="http://www.w3.org/1999/xlink" x="0px" y="0px"
	 viewBox="0 0 800 190.4" style="enable-background:new 0 0 800 190.4;" xml:space="preserve">
<g>
	<title>EnerSave</title>
	<g>
		<path style="fill:#21253D;" d="M297.3,130.7l0.7,10.4c-8.2,0.7-21.6,1.1-40.2,1.1c-5.8,0-10.4-1.5-13.7-4.5
			c-3.3-3-5.1-7.1-5.2-12.3V64.9c0.1-5.2,1.8-9.2,5.2-12.3c3.3-3,7.9-4.5,13.7-4.5c18.5,0,31.9,0.4,40.2,1.1l-0.7,10.6h-37.2
			c-2.7,0-4.6,0.7-5.8,2c-1.1,1.3-1.7,3.6-1.7,6.7v18.7h39.5v11h-39.5v23.9c0,3.2,0.6,5.4,1.7,6.7c1.1,1.3,3.1,2,5.8,2H297.3z"/>
		<path style="fill:#21253D;" d="M326,75.8l0.8,10.2c10.4-8,20.2-11.9,29.3-11.9c5.9,0,10.3,1.6,13.4,4.7c3,3.1,4.5,7.7,4.5,13.6
			V142h-13.2V96.2c0-4.2-0.6-7-1.8-8.6c-1.2-1.6-3.4-2.4-6.6-2.4c-3.4,0-6.9,0.8-10.3,2.3c-3.4,1.5-8.1,4.1-14.1,7.6V142h-13.2V75.8
			H326z"/>
		<path style="fill:#21253D;" d="M434.4,115.3h-29.7c0.6,6.9,2.4,11.5,5.4,13.8c2.9,2.4,7.8,3.5,14.4,3.5c5.9,0,13.6-0.5,23.2-1.6
			l1.2,8.7c-6,2.6-14.7,3.9-26.2,3.9c-11.6,0-19.8-2.6-24.6-7.9c-4.8-5.2-7.3-14.2-7.3-27c0-12.8,2.4-21.8,7.1-27
			c4.7-5.2,12.6-7.7,23.5-7.7c10.1,0,17.5,1.9,22.1,5.6c4.6,3.7,6.9,9.3,6.9,16.7C450.5,109,445.1,115.3,434.4,115.3z M404.5,105.1
			h26.3c4.3,0,6.5-2.9,6.5-8.8c-0.1-4.1-1.2-6.9-3.5-8.6c-2.2-1.7-6.1-2.5-11.7-2.5c-6.5,0-11,1.4-13.6,4.1
			C406,92.1,404.7,97.3,404.5,105.1z"/>
		<path style="fill:#21253D;" d="M509.5,74L508,86.4H504c-5.2,0-13.1,2.5-23.7,7.6v48h-13.2V75.8h10.2l1.4,10
			C488.4,78,497.7,74,506.4,74H509.5z"/>
		<path style="fill:#21253D;" d="M556.5,103.3l-19-5.3c-6.7-1.8-11.5-4.9-14.3-9.2c-2.8-4.3-4.3-10.1-4.3-17.4c0-5.3,0.6-9.7,1.7-13
			c1.1-3.3,3.1-5.8,5.9-7.5c2.8-1.7,5.9-2.8,9.4-3.4c3.4-0.5,8-0.8,13.8-0.8c11,0,20.4,0.9,28.2,2.8l-0.8,9.9
			c-13.1-0.5-22.1-0.7-26.9-0.7c-7.1,0-11.8,0.7-14.1,2.1c-2.4,1.4-3.5,5-3.5,10.9c0,4.6,0.8,7.9,2.5,9.8c1.7,1.9,4.6,3.4,8.8,4.5
			l18.6,5.2c7,1.9,11.9,5,14.7,9.2c2.8,4.3,4.3,10,4.3,17.4c0,10.3-2.4,17.2-7.1,20.6c-4.7,3.4-13,5.2-24.8,5.2
			c-10,0-19.8-0.9-29.4-2.7l0.9-10c14.1,0.5,23.7,0.7,28.8,0.7c7.1-0.1,11.8-1,14.2-2.7c2.4-1.7,3.6-5.4,3.6-11.1
			c0-4.8-0.8-8.1-2.4-10C563.5,105.9,560.6,104.4,556.5,103.3z"/>
		<path style="fill:#21253D;" d="M598.8,86.8l-1.2-9.6c11.9-2.1,22.7-3.1,32.2-3.1c8.1,0,14,1.6,17.8,4.9c3.8,3.3,5.7,8.9,5.7,17
			V142h-10.3l-1.5-10.4c-7.6,7.8-16.4,11.7-26.5,11.7c-6.2,0-11.1-1.6-14.7-4.9c-3.7-3.3-5.5-7.9-5.5-13.8v-6.9
			c0-5.2,1.6-9.3,4.9-12.2c3.3-2.9,7.9-4.3,13.8-4.3H640v-5.2c-0.1-4.1-1-6.9-2.8-8.4c-1.8-1.5-5.2-2.3-10.3-2.3
			C621.9,85.2,612.5,85.7,598.8,86.8z M608,119.4v3.5c0,3.3,0.8,5.6,2.3,7.1c1.5,1.4,4,2.2,7.3,2.2c7.9,0,15.3-3.1,22.4-9.2v-11.9
			h-24.2c-2.9,0.1-4.9,0.8-6.1,2.2C608.6,114.6,608,116.6,608,119.4z"/>
		<path style="fill:#21253D;" d="M733.1,75.8l-23.6,63c-0.9,2.2-2.4,3.3-4.6,3.3h-11.8c-2.3,0-3.8-1.1-4.5-3.3l-23.6-63h14
			l15.5,45.6l3.7,11.4h1.8l3.9-11.4l15.3-45.6H733.1z"/>
		<path style="fill:#21253D;" d="M785,115.3h-29.7c0.6,6.9,2.4,11.5,5.4,13.8c2.9,2.4,7.8,3.5,14.4,3.5c5.9,0,13.6-0.5,23.2-1.6
			l1.2,8.7c-6,2.6-14.7,3.9-26.2,3.9c-11.6,0-19.8-2.6-24.6-7.9c-4.8-5.2-7.3-14.2-7.3-27c0-12.8,2.4-21.8,7.1-27
			c4.7-5.2,12.6-7.7,23.5-7.7c10.1,0,17.5,1.9,22.1,5.6c4.6,3.7,6.9,9.3,6.9,16.7C801.1,109,795.7,115.3,785,115.3z M755.1,105.1
			h26.3c4.3,0,6.5-2.9,6.5-8.8c-0.1-4.1-1.2-6.9-3.5-8.6c-2.2-1.7-6.1-2.5-11.7-2.5c-6.5,0-11,1.4-13.6,4.1
			C756.6,92.1,755.3,97.3,755.1,105.1z"/>
	</g>
	<path style="fill:none;" d="M95.3,34.1L95,33.9c-13.9,5.1-26.4,13.3-36.8,23.6C47.6,68.2,39.3,81,34.3,95.2l-0.2,0.4
		c5.1,13.9,13.3,26.4,23.6,36.8c10.6,10.6,23.4,18.9,37.6,24l0.4,0.2c13.9-5.1,26.4-13.3,36.8-23.6c10.6-10.6,18.9-23.4,24-37.6
		l0.2-0.4C151.5,81,143.3,68.4,133,58.1C122.4,47.5,109.5,39.2,95.3,34.1z"/>
	<path style="fill:#38E825;" d="M141.8,12.3C127.9,4.5,112,0,95,0C42.4,0-0.2,42.6-0.2,95.2c0,17.2,4.6,33.3,12.6,47.3l21.5-46.9
		l0.3-0.4c5.1-14.2,13.4-27,24-37.6c10.4-10.4,22.9-18.5,36.8-23.6c0.3-0.1,0.6-0.2,0.9-0.3L141.8,12.3z"/>
	<g>
		<path style="fill:#25162B;" d="M109.7,62.6L74.6,91.8c-1.2,1-0.6,3.1,0.8,3.2l7.1,0.3c0.9,0,1.6,1.1,1.3,2.2l-7.1,29.1
			c-0.4,1.6,1.1,2.8,2.2,1.9l36.3-29.2c1.2-0.9,0.6-3.1-0.8-3.2l-8.3-0.3c-1,0-1.6-1.1-1.4-2.2l7-29C112.3,63,110.8,61.7,109.7,62.6
			z"/>
	</g>
	<path style="fill:#25BC0F;" d="M142,12.4L95.8,33.6c-0.3,0.1-0.6,0.2-0.9,0.3l0.4,0.2c14.2,5.1,27,13.4,37.6,24
		c10.4,10.4,18.5,22.9,23.6,36.8l21.1-46.7C169.3,33.3,156.9,20.9,142,12.4z"/>
	<path style="fill:#38E825;" d="M177.4,47.7l-21.1,47.2l0,0.4c-5.1,14.2-13.3,27-23.9,37.6c-10.4,10.4-22.9,18.5-36.7,23.6l0,0
		c-0.3,0.1-0.6,0.2-0.8,0.3L48,178c13.9,7.9,29.9,12.4,46.9,12.4c52.6,0,95.2-42.6,95.2-95.2C190.2,77.9,185.5,61.6,177.4,47.7z"/>
	<path style="fill:#25BC0F;" d="M95.3,156.3c-14.2-5.1-27-13.4-37.6-24C47.4,122,39.2,109.4,34.1,95.6l-21.5,47.4
		c8.5,14.7,20.9,26.9,35.7,35.2l46.6-21.4c0.3-0.1,0.6-0.2,0.9-0.3L95.3,156.3z"/>
	<path style="fill:#25BC0F;" d="M142,12.4L95.8,33.6c-0.3,0.1-0.6,0.2-0.9,0.3l0.4,0.2c14.2,5.1,27,13.4,37.6,24
		c10.4,10.4,18.5,22.9,23.6,36.8l21.1-46.7C169.3,33.3,156.9,20.9,142,12.4z"/>
	<path style="fill:#25BC0F;" d="M95.3,156.3c-14.2-5.1-27-13.4-37.6-24C47.4,122,39.2,109.4,34.1,95.6l-21.5,47.4
		c8.5,14.7,20.9,26.9,35.7,35.2l46.6-21.4c0.3-0.1,0.6-0.2,0.9-0.3L95.3,156.3z"/>
	<path style="fill:#38E825;" d="M141.8,12.3C127.9,4.5,112,0,95,0C42.4,0-0.2,42.6-0.2,95.2c0,17.2,4.6,33.3,12.6,47.3l21.7-46.9
		c5.1-14.2,13.5-27.4,24.1-38c10.4-10.4,22.9-18.5,36.8-23.6c0.3-0.1,0.6-0.2,0.9-0.3L141.8,12.3z"/>
	<path style="fill:#6BED35;" d="M177.4,47.7l-21.1,47.2l0,0.4c-5.1,14.2-13.3,27-23.9,37.6c-10.4,10.4-22.9,18.5-36.7,23.6l0,0
		c-0.3,0.1-0.6,0.2-0.8,0.3L48,178c13.9,7.9,29.9,12.4,46.9,12.4c52.6,0,95.2-42.6,95.2-95.2C190.2,77.9,185.5,61.6,177.4,47.7z"/>
	<path style="fill:#44C400;" d="M142,12.4L95.8,33.6c-0.3,0.1-0.6,0.2-0.9,0.3l0.4,0.2c14.2,5.1,27,13.4,37.6,24
		c10.4,10.4,18.5,22.9,23.6,36.8l21.1-46.7C169.3,33.3,156.9,20.9,142,12.4z"/>
	<path style="fill:#44C400;" d="M95.3,156.3c-14.2-5.1-27-13.4-37.6-24C47.4,122,39.2,109.4,34.1,95.6l-21.7,46.9
		c8.5,14.7,21.1,27.3,35.9,35.7l46.6-21.4c0.3-0.1,0.6-0.2,0.9-0.3L95.3,156.3z"/>
	<path style="fill:#38E825;" d="M141.8,12.3C127.9,4.5,112,0,95,0C42.4,0-0.2,42.6-0.2,95.2c0,17.2,4.6,33.3,12.6,47.3l21.7-46.9
		c5.1-14.2,13.5-27.4,24.1-38c10.4-10.4,22.9-18.5,36.8-23.6c0.3-0.1,0.6-0.2,0.9-0.3L141.8,12.3z"/>
	<path style="fill:#6BED35;" d="M142,12.4C128.2,4.6,112,0,95,0C42.4,0-0.2,42.6-0.2,95.2c0,17.2,4.6,33.3,12.6,47.3l21.7-46.9
		c5.1-14.2,13.5-27.4,24.1-38c10.4-10.4,22.9-18.5,36.8-23.6c0.3-0.1,0.6-0.2,0.9-0.3L142,12.4z"/>
</g>
</svg>
