<?xml version="1.0" encoding="utf-8"?>
<!-- Generator: Adobe Illustrator 18.1.1, SVG Export Plug-In . SVG Version: 6.00 Build 0)  -->
<svg version="1.1" id="Layer_1" xmlns="http://www.w3.org/2000/svg" xmlns:xlink="http://www.w3.org/1999/xlink" x="0px" y="0px"
	 viewBox="0 0 800 190.4" style="enable-background:new 0 0 800 190.4;" xml:space="preserve">
<g>
	<title>EnerSave</title>
	<g>
		<g>
			<path style="fill:#FFFFFF;" d="M297.3,130.5l0.7,10.4c-8.2,0.7-21.6,1.1-40,1.1c-5.8,0-10.3-1.5-13.7-4.5
				c-3.3-3-5.1-7.1-5.1-12.2V64.9c0.1-5.1,1.8-9.2,5.1-12.2c3.3-3,7.9-4.5,13.7-4.5c18.5,0,31.8,0.4,40,1.1l-0.7,10.6h-37.1
				c-2.7,0-4.6,0.7-5.7,2c-1.1,1.3-1.7,3.5-1.7,6.7V87h39.4v11h-39.4v23.8c0,3.2,0.6,5.4,1.7,6.7c1.1,1.3,3,2,5.7,2H297.3z"/>
			<path style="fill:#FFFFFF;" d="M325.9,75.7l0.8,10.1c10.4-7.9,20.1-11.9,29.2-11.9c5.9,0,10.3,1.6,13.3,4.7
				c3,3.1,4.5,7.6,4.5,13.6v49.5h-13.1V96c0-4.1-0.6-7-1.8-8.6c-1.2-1.6-3.4-2.4-6.6-2.4c-3.4,0-6.9,0.8-10.3,2.3
				c-3.4,1.5-8.1,4.1-14.1,7.6v46.8h-13.1v-66H325.9z"/>
			<path style="fill:#FFFFFF;" d="M434,115h-29.6c0.6,6.9,2.4,11.5,5.3,13.8c2.9,2.3,7.7,3.5,14.4,3.5c5.9,0,13.6-0.5,23.1-1.6
				l1.2,8.7c-6,2.6-14.7,3.9-26.1,3.9c-11.5,0-19.7-2.6-24.6-7.8c-4.8-5.2-7.2-14.2-7.2-26.9c0-12.8,2.4-21.8,7.1-26.9
				c4.7-5.1,12.6-7.7,23.5-7.7c10.1,0,17.4,1.8,22,5.5c4.6,3.7,6.9,9.2,6.9,16.6C450.1,108.7,444.7,115,434,115z M404.2,104.9h26.2
				c4.3,0,6.5-2.9,6.5-8.8c-0.1-4.1-1.2-6.9-3.4-8.6c-2.2-1.7-6.1-2.5-11.7-2.5c-6.5,0-11,1.4-13.5,4.1
				C405.7,91.9,404.4,97.1,404.2,104.9z"/>
			<path style="fill:#FFFFFF;" d="M508.9,73.9l-1.5,12.3h-4.1c-5.1,0-13,2.5-23.7,7.6v47.9h-13.1v-66h10.1l1.4,10
				c9.8-7.8,19.1-11.8,27.7-11.8H508.9z"/>
			<path style="fill:#FFFFFF;" d="M555.7,103.1l-18.9-5.3c-6.7-1.8-11.4-4.8-14.3-9.1c-2.8-4.3-4.3-10.1-4.3-17.4
				c0-5.3,0.6-9.6,1.7-12.9c1.1-3.3,3.1-5.8,5.9-7.5c2.8-1.7,5.9-2.8,9.3-3.4c3.4-0.5,8-0.8,13.8-0.8c11,0,20.4,0.9,28.1,2.8
				l-0.8,9.9c-13.1-0.5-22-0.7-26.8-0.7c-7,0-11.7,0.7-14.1,2.1c-2.3,1.4-3.5,5-3.5,10.9c0,4.6,0.8,7.8,2.5,9.7
				c1.7,1.9,4.6,3.4,8.7,4.5l18.5,5.1c6.9,1.9,11.8,5,14.7,9.2c2.8,4.2,4.3,10,4.3,17.3c0,10.3-2.3,17.1-7,20.6
				c-4.7,3.4-12.9,5.1-24.8,5.1c-9.9,0-19.7-0.9-29.4-2.7l0.9-10c14.1,0.5,23.6,0.7,28.7,0.7c7-0.1,11.7-1,14.1-2.7
				c2.4-1.7,3.6-5.4,3.6-11.1c0-4.8-0.8-8.1-2.4-9.9C562.7,105.7,559.9,104.2,555.7,103.1z"/>
			<path style="fill:#FFFFFF;" d="M597.9,86.6l-1.2-9.6c11.9-2.1,22.6-3.1,32.1-3.1c8,0,13.9,1.6,17.7,4.9s5.7,8.9,5.7,16.9v46
				h-10.3l-1.5-10.4c-7.6,7.8-16.4,11.6-26.4,11.6c-6.1,0-11-1.6-14.7-4.9c-3.7-3.2-5.5-7.8-5.5-13.8v-6.9c0-5.2,1.6-9.3,4.9-12.2
				c3.2-2.9,7.8-4.3,13.8-4.3H639v-5.1c-0.1-4.1-1-6.9-2.8-8.4c-1.8-1.5-5.2-2.3-10.3-2.3C620.9,85,611.6,85.5,597.9,86.6z
				 M607.1,119.1v3.5c0,3.2,0.8,5.6,2.3,7c1.5,1.4,4,2.2,7.3,2.2c7.8,0,15.3-3.1,22.3-9.2v-11.9H615c-2.9,0.1-4.9,0.8-6.1,2.2
				C607.7,114.3,607.1,116.4,607.1,119.1z"/>
			<path style="fill:#FFFFFF;" d="M731.8,75.7l-23.5,62.8c-0.9,2.2-2.4,3.2-4.6,3.2h-11.8c-2.3,0-3.7-1.1-4.5-3.2l-23.5-62.8h13.9
				l15.4,45.5l3.7,11.4h1.8l3.9-11.4l15.3-45.5H731.8z"/>
			<path style="fill:#FFFFFF;" d="M783.5,115h-29.6c0.6,6.9,2.4,11.5,5.3,13.8c2.9,2.3,7.7,3.5,14.4,3.5c5.9,0,13.6-0.5,23.1-1.6
				l1.2,8.7c-6,2.6-14.7,3.9-26.1,3.9c-11.5,0-19.7-2.6-24.6-7.8c-4.8-5.2-7.2-14.2-7.2-26.9c0-12.8,2.4-21.8,7.1-26.9
				c4.7-5.1,12.6-7.7,23.5-7.7c10.1,0,17.5,1.8,22.1,5.5c4.6,3.7,6.9,9.2,6.9,16.6C799.6,108.7,794.2,115,783.5,115z M753.7,104.9
				H780c4.3,0,6.5-2.9,6.5-8.8c-0.1-4.1-1.2-6.9-3.4-8.6c-2.2-1.7-6.1-2.5-11.7-2.5c-6.5,0-11,1.4-13.5,4.1
				C755.3,91.9,753.9,97.1,753.7,104.9z"/>
		</g>
		<path style="fill:none;" d="M96,34.1l-0.4-0.2C81.8,39,69.3,47.2,59,57.5C48.4,68.1,40.1,80.9,35.1,95l-0.2,0.4
			c5.1,13.8,13.2,26.3,23.6,36.7C69,142.6,81.8,150.8,96,155.9l0.4,0.2c13.8-5.1,26.3-13.2,36.7-23.6c10.5-10.5,18.8-23.4,23.9-37.5
			l0.2-0.4c-5.1-13.8-13.2-26.3-23.6-36.7C122.9,47.5,110.1,39.2,96,34.1z"/>
		<path style="fill:#38E825;" d="M142.1,12.4C128.3,4.6,112.4,0.1,95.4,0.1C43,0.1,0.5,42.6,0.5,95c0,17.2,4.6,33.2,12.5,47.1
			l21.4-46.8l0.3-0.4c5.1-14.2,13.4-27,23.9-37.5C69.1,47.2,81.6,39,95.4,34c0.3-0.1,0.6-0.2,0.9-0.3L142.1,12.4z"/>
		<g>
			<path style="fill:#FFFFFF;" d="M110.3,62.5l-35,29.1c-1.1,1-0.6,3.1,0.8,3.2l7.1,0.3c0.9,0,1.6,1.1,1.3,2.2l-7,29
				c-0.4,1.6,1.1,2.8,2.2,1.9l36.2-29.2c1.2-0.9,0.6-3.1-0.8-3.2l-8.3-0.3c-0.9,0-1.6-1.1-1.4-2.2l7-28.9
				C112.9,62.9,111.4,61.6,110.3,62.5z"/>
		</g>
		<path style="fill:#25BC0F;" d="M142.3,12.5l-46,21.1c-0.3,0.1-0.6,0.2-0.9,0.3l0.4,0.2c14.2,5.1,27,13.3,37.5,23.9
			c10.3,10.3,18.5,22.8,23.6,36.7L178,48.1C169.5,33.3,157.2,21,142.3,12.5z"/>
		<path style="fill:#38E825;" d="M177.7,47.6l-21.1,47l0,0.4c-5.1,14.2-13.3,27-23.8,37.5c-10.3,10.3-22.8,18.5-36.6,23.6l0,0
			c-0.3,0.1-0.6,0.2-0.8,0.3l-46.7,21.2c13.8,7.8,29.8,12.3,46.8,12.3c52.4,0,94.9-42.5,94.9-94.9C190.4,77.8,185.7,61.6,177.7,47.6
			z"/>
		<path style="fill:#25BC0F;" d="M95.8,155.9c-14.2-5.1-27-13.3-37.5-23.9C48,121.7,39.8,109.2,34.7,95.4l-21.4,47.2
			c8.5,14.6,20.8,26.8,35.6,35.1l46.4-21.3c0.3-0.1,0.6-0.2,0.9-0.3L95.8,155.9z"/>
		<path style="fill:#25BC0F;" d="M142.3,12.5l-46,21.1c-0.3,0.1-0.6,0.2-0.9,0.3l0.4,0.2c14.2,5.1,27,13.3,37.5,23.9
			c10.3,10.3,18.5,22.8,23.6,36.7L178,48.1C169.5,33.3,157.2,21,142.3,12.5z"/>
		<path style="fill:#25BC0F;" d="M95.8,155.9c-14.2-5.1-27-13.3-37.5-23.9C48,121.7,39.8,109.2,34.7,95.4l-21.4,47.2
			c8.5,14.6,20.8,26.8,35.6,35.1l46.4-21.3c0.3-0.1,0.6-0.2,0.9-0.3L95.8,155.9z"/>
		<path style="fill:#38E825;" d="M142.1,12.4C128.3,4.6,112.4,0.1,95.4,0.1C43,0.1,0.5,42.6,0.5,95c0,17.2,4.6,33.2,12.5,47.1
			l21.7-46.8c5.1-14.2,13.4-27.3,24-37.9C69.1,47.2,81.6,39,95.4,34c0.3-0.1,0.6-0.2,0.9-0.3L142.1,12.4z"/>
		<path style="fill:#6BED35;" d="M177.7,47.6l-21.1,47l0,0.4c-5.1,14.2-13.3,27-23.8,37.5c-10.3,10.3-22.8,18.5-36.6,23.6l0,0
			c-0.3,0.1-0.6,0.2-0.8,0.3l-46.7,21.2c13.8,7.8,29.8,12.3,46.8,12.3c52.4,0,94.9-42.5,94.9-94.9C190.4,77.8,185.7,61.6,177.7,47.6
			z"/>
		<path style="fill:#44C400;" d="M142.3,12.5l-46,21.1c-0.3,0.1-0.6,0.2-0.9,0.3l0.4,0.2c14.2,5.1,27,13.3,37.5,23.9
			c10.3,10.3,18.5,22.8,23.6,36.7L178,48.1C169.5,33.3,157.2,21,142.3,12.5z"/>
		<path style="fill:#44C400;" d="M95.8,155.9c-14.2-5.1-27-13.3-37.5-23.9C48,121.7,39.8,109.2,34.7,95.4l-21.7,46.8
			c8.5,14.6,21.1,27.3,35.8,35.6l46.4-21.3c0.3-0.1,0.6-0.2,0.9-0.3L95.8,155.9z"/>
		<path style="fill:#38E825;" d="M142.1,12.4C128.3,4.6,112.4,0.1,95.4,0.1C43,0.1,0.5,42.6,0.5,95c0,17.2,4.6,33.2,12.5,47.1
			l21.7-46.8c5.1-14.2,13.4-27.3,24-37.9C69.1,47.2,81.6,39,95.4,34c0.3-0.1,0.6-0.2,0.9-0.3L142.1,12.4z"/>
		<path style="fill:#6BED35;" d="M142.3,12.5C128.5,4.7,112.4,0.1,95.4,0.1C43,0.1,0.5,42.6,0.5,95c0,17.2,4.6,33.2,12.5,47.1
			l21.7-46.8c5.1-14.2,13.4-27.3,24-37.9C69.1,47.2,81.6,39,95.4,34c0.3-0.1,0.6-0.2,0.9-0.3L142.3,12.5z"/>
	</g>
</g>
</svg>
